<svg xmlns="http://www.w3.org/2000/svg" xmlns:xlink="http://www.w3.org/1999/xlink" viewBox="0 0 24 24" version="1.1"
	x="0px" y="0px">
	<title>Group</title>
	<desc>Created with Sketch.</desc>
	<defs>
		<linearGradient id="grad1" x1="0%" y1="0%" x2="100%" y2="0%">
			<stop offset="0%" style="stop-color:#2383ae;stop-opacity:1" />
			<stop offset="100%" style="stop-color:#6dd7b9;stop-opacity:1" />
		</linearGradient>
	</defs>
	<g stroke="none" stroke-width="1" fill="url(#grad1)" fill-rule="evenodd">
		<g transform="translate(1.000000, 0.000000)">
			<path
				d="M19.7746969,11.0106877 L18.7126225,9.94861333 L20.8339428,7.82729299 C22.3895777,6.27165807 22.3959417,3.73243762 20.8339428,2.17043874 C19.2747724,0.611268287 16.7390875,0.60843986 15.1770886,2.17043874 L13.0557682,4.29175908 L11.9936938,3.2296847 C11.411745,2.64773582 10.4592721,2.6456145 9.87378771,3.23109891 C9.28406066,3.82082597 9.28759619,4.76622773 9.8723735,5.35100504 L10.9344479,6.41307943 L3.15344487,14.1940824 C2.10763394,15.2398934 1.03919559,19.1367588 1.03919559,19.1367588 C0.25501417,19.9209403 0.253599956,21.1880756 1.03495295,21.9694286 C1.82125569,22.7557314 3.0841484,22.7486603 3.86762271,21.965186 C3.86762271,21.965186 7.76519529,20.8960405 8.81029912,19.8509367 L16.5913021,12.0699337 L17.6533765,13.1320081 C18.2353254,13.7139569 19.1870911,13.7167854 19.7732827,13.1305938 C20.3630097,12.5408668 20.3594742,11.595465 19.7746969,11.0106877 L19.7746969,11.0106877 L19.7746969,11.0106877 Z M7.39608555,18.4367231 C7.29072664,18.542082 6.7858524,18.8178537 6.08228115,19.1070604 C5.82984403,19.2110051 5.55690081,19.3142426 5.26910836,19.4181873 C4.81938844,19.5808219 4.3562335,19.7328499 3.90863491,19.8693215 C3.64205565,19.9506388 3.44265154,20.0086215 3.33799974,20.0369058 L2.82746864,20.1769129 L2.96818289,19.6656747 C2.99646716,19.5610229 3.05374281,19.3623259 3.13506009,19.0957467 C3.2715317,18.6481481 3.42355966,18.1849931 3.58619422,17.7352732 C3.68943181,17.4467736 3.79408361,17.1738304 3.89802831,16.9213933 C4.18652787,16.2185292 4.46159241,15.714362 4.56765843,15.608296 L12.3486614,7.82729299 L15.1770886,10.6557201 L7.39608555,18.4367231 L7.39608555,18.4367231 L7.39608555,18.4367231 Z M4.65293551,17.8017412 C4.55394056,18.0690276 4.36514305,18.6396628 4.36514305,18.6396628 C4.36514305,18.6396628 4.84597566,18.4840993 5.20235747,18.3511632 C5.44135957,18.2620678 5.6633911,18.1743865 5.86562364,18.0895337 C6.34787046,17.885887 6.75021422,17.6688052 6.76082082,17.6581986 L8.81355181,15.6054676 L7.39933824,14.191254 L5.34660726,16.243985 C5.33600066,16.2545916 5.11891887,16.6555212 4.91527212,17.137768 C4.8297122,17.3407076 4.74203096,17.5627392 4.65293551,17.8017412 L4.65293551,17.8017412 L4.65293551,17.8017412 Z" />
		</g>
	</g><text x="0" y="39" fill="#000000" font-size="5px" font-weight="bold"
		font-family="'Helvetica Neue', Helvetica, Arial-Unicode, Arial, Sans-serif">Created by Denis
		Klyuchnikov</text><text x="0" y="44" fill="#000000" font-size="5px" font-weight="bold"
		font-family="'Helvetica Neue', Helvetica, Arial-Unicode, Arial, Sans-serif">from the Noun Project</text>
</svg>